<?xml version="1.0" encoding="UTF-8" standalone="no"?>
<svg width="121px" height="30px" viewBox="0 0 121 30" version="1.1" xmlns="http://www.w3.org/2000/svg" xmlns:xlink="http://www.w3.org/1999/xlink">
    <!-- Generator: Sketch 49.1 (51147) - http://www.bohemiancoding.com/sketch -->
    <title>logo</title>
    <desc>Created with Sketch.</desc>
    <defs></defs>
    <g id="logo" stroke="none" stroke-width="1" fill="none" fill-rule="evenodd">
        <g id="Group-5-Copy" transform="translate(3.000000, 4.000000)" fill="#FF4135">
            <path d="M31,5.14 L36.244,5.14 C36.7506692,5.14 37.2509975,5.20016607 37.745,5.3205 C38.2390025,5.44083393 38.6791647,5.6371653 39.0655,5.9095 C39.4518353,6.18183469 39.7653321,6.53333118 40.006,6.964 C40.2466679,7.39466882 40.367,7.91399696 40.367,8.522 C40.367,9.2820038 40.1516688,9.90899753 39.721,10.403 C39.2903312,10.8970025 38.7266702,11.2516656 38.03,11.467 L38.03,11.505 C38.8786709,11.6190006 39.5753306,11.9483306 40.12,12.493 C40.6646694,13.0376694 40.937,13.7659954 40.937,14.678 C40.937,15.4126703 40.7913348,16.0301642 40.5,16.5305 C40.2086652,17.0308358 39.8255024,17.4329985 39.3505,17.737 C38.8754976,18.0410015 38.3308364,18.2594993 37.7165,18.3925 C37.1021636,18.5255007 36.4783365,18.592 35.845,18.592 L31,18.592 L31,5.14 Z M33.394,10.612 L35.522,10.612 C36.320004,10.612 36.9279979,10.4536682 37.346,10.137 C37.7640021,9.82033175 37.973,9.37066958 37.973,8.788 C37.973,8.17999696 37.7576688,7.7493346 37.327,7.496 C36.8963312,7.2426654 36.2250046,7.116 35.313,7.116 L33.394,7.116 L33.394,10.612 Z M33.394,16.578 L35.541,16.578 C35.8450015,16.578 36.1743316,16.5558336 36.529,16.5115 C36.8836684,16.4671664 37.2098318,16.375334 37.5075,16.236 C37.8051682,16.096666 38.0521657,15.8940013 38.2485,15.628 C38.4448343,15.3619987 38.543,15.0073356 38.543,14.564 C38.543,13.8546631 38.3023357,13.3606681 37.821,13.082 C37.3396643,12.8033319 36.6113382,12.664 35.636,12.664 L33.394,12.664 L33.394,16.578 Z M49.601,13.12 C49.601,12.8286652 49.5598337,12.5500013 49.4775,12.284 C49.3951663,12.0179987 49.2653342,11.7836677 49.088,11.581 C48.9106658,11.3783323 48.6858347,11.2168339 48.4135,11.0965 C48.1411653,10.9761661 47.8213352,10.916 47.454,10.916 C46.7699966,10.916 46.1905024,11.1218313 45.7155,11.5335 C45.2404976,11.9451687 44.9776669,12.4739968 44.927,13.12 L49.601,13.12 Z M51.881,14.146 L51.881,14.45 C51.881,14.5513338 51.8746667,14.6526662 51.862,14.754 L44.927,14.754 C44.9523335,15.083335 45.0378326,15.3841653 45.1835,15.6565 C45.3291674,15.9288347 45.5223321,16.1631657 45.763,16.3595 C46.0036679,16.5558343 46.2759985,16.7109994 46.58,16.825 C46.8840015,16.9390006 47.200665,16.996 47.53,16.996 C48.1000028,16.996 48.5813314,16.891501 48.974,16.6825 C49.3666686,16.473499 49.6896654,16.1853352 49.943,15.818 L51.463,17.034 C50.5636622,18.2500061 49.2590085,18.858 47.549,18.858 C46.8396631,18.858 46.1873363,18.7471678 45.592,18.5255 C44.9966637,18.3038322 44.4805022,17.9903354 44.0435,17.585 C43.6064978,17.1796646 43.2645012,16.6825029 43.0175,16.0935 C42.7704988,15.5044971 42.647,14.8363371 42.647,14.089 C42.647,13.3543297 42.7704988,12.6861697 43.0175,12.0845 C43.2645012,11.4828303 43.6033312,10.9698355 44.034,10.5455 C44.4646688,10.1211645 44.9744971,9.7918345 45.5635,9.5575 C46.1525029,9.32316549 46.7889966,9.206 47.473,9.206 C48.1063365,9.206 48.692164,9.31049895 49.2305,9.5195 C49.768836,9.72850104 50.2343314,10.0388313 50.627,10.4505 C51.0196686,10.8621687 51.3268322,11.3751636 51.5485,11.9895 C51.7701678,12.6038364 51.881,13.3226625 51.881,14.146 Z M59.082,11.904 C58.8793323,11.6379987 58.6006684,11.4068343 58.246,11.2105 C57.8913316,11.0141657 57.5050021,10.916 57.087,10.916 C56.7196648,10.916 56.3840015,10.9919992 56.08,11.144 C55.7759985,11.2960008 55.624,11.5493316 55.624,11.904 C55.624,12.2586684 55.7918317,12.5088326 56.1275,12.6545 C56.4631683,12.8001674 56.9539968,12.9489992 57.6,13.101 C57.9420017,13.1770004 58.2871649,13.2783327 58.6355,13.405 C58.9838351,13.5316673 59.3004986,13.699499 59.5855,13.9085 C59.8705014,14.117501 60.1016658,14.3771651 60.279,14.6875 C60.4563342,14.9978349 60.545,15.3746644 60.545,15.818 C60.545,16.3753361 60.440501,16.8471647 60.2315,17.2335 C60.022499,17.6198353 59.7438351,17.9333321 59.3955,18.174 C59.0471649,18.4146679 58.6418356,18.5888328 58.1795,18.6965 C57.7171644,18.8041672 57.2390025,18.858 56.745,18.858 C56.0356631,18.858 55.3453367,18.728168 54.674,18.4685 C54.0026633,18.208832 53.4453355,17.8383357 53.002,17.357 L54.503,15.951 C54.7563346,16.280335 55.0856646,16.5526656 55.491,16.768 C55.8963354,16.9833344 56.3459975,17.091 56.84,17.091 C57.0046675,17.091 57.1724991,17.0720002 57.3435,17.034 C57.5145009,16.9959998 57.6728326,16.9358337 57.8185,16.8535 C57.9641674,16.7711663 58.0813329,16.660334 58.17,16.521 C58.2586671,16.381666 58.303,16.2106677 58.303,16.008 C58.303,15.6279981 58.1288351,15.3556675 57.7805,15.191 C57.4321649,15.0263325 56.9096701,14.8616675 56.213,14.697 C55.8709983,14.6209996 55.5385016,14.5228339 55.2155,14.4025 C54.8924984,14.2821661 54.6043346,14.1238343 54.351,13.9275 C54.0976654,13.7311657 53.8950008,13.4873348 53.743,13.196 C53.5909992,12.9046652 53.515,12.5436688 53.515,12.113 C53.515,11.6063308 53.619499,11.1693352 53.8285,10.802 C54.037501,10.4346648 54.3129983,10.1338345 54.655,9.8995 C54.9970017,9.6651655 55.3833312,9.49100057 55.814,9.377 C56.2446688,9.26299943 56.6879977,9.206 57.144,9.206 C57.80267,9.206 58.4454969,9.31999886 59.0725,9.548 C59.6995031,9.77600114 60.1966648,10.124331 60.564,10.593 L59.082,11.904 Z M61.21,11.296 L61.21,9.472 L62.806,9.472 L62.806,6.831 L65.048,6.831 L65.048,9.472 L67.328,9.472 L67.328,11.296 L65.048,11.296 L65.048,15.533 C65.048,15.9383354 65.1208326,16.2739987 65.2665,16.54 C65.4121674,16.8060013 65.7383308,16.939 66.245,16.939 C66.3970008,16.939 66.5616658,16.9231668 66.739,16.8915 C66.9163342,16.8598332 67.074666,16.8123336 67.214,16.749 L67.29,18.535 C67.0873323,18.6110004 66.8466681,18.6711664 66.568,18.7155 C66.2893319,18.7598336 66.0233346,18.782 65.77,18.782 C65.161997,18.782 64.6680019,18.6965009 64.288,18.5255 C63.9079981,18.3544991 63.6071678,18.1201682 63.3855,17.8225 C63.1638322,17.5248318 63.0118337,17.1828353 62.9295,16.7965 C62.8471663,16.4101647 62.806,15.9953356 62.806,15.552 L62.806,11.296 L61.21,11.296 Z M69.342,11.296 L67.613,11.296 L67.613,9.472 L69.342,9.472 L69.342,8.123 C69.342,7.57833061 69.4021661,7.05583583 69.5225,6.5555 C69.6428339,6.05516417 69.8454986,5.6150019 70.1305,5.235 C70.4155014,4.8549981 70.792331,4.55416777 71.261,4.3325 C71.729669,4.11083222 72.3186631,4 73.028,4 C73.2813346,4 73.4934991,4.00949991 73.6645,4.0285 C73.8355009,4.0475001 74.0096658,4.08233308 74.187,4.133 L74.035,6.071 C73.9083327,6.03299981 73.7721674,6.00133346 73.6265,5.976 C73.4808326,5.95066654 73.3256675,5.938 73.161,5.938 C72.831665,5.938 72.5656677,6.0013327 72.363,6.128 C72.1603323,6.2546673 72.0051672,6.41933232 71.8975,6.622 C71.7898328,6.82466768 71.7170002,7.04633213 71.679,7.287 C71.6409998,7.52766787 71.622,7.76199886 71.622,7.99 L71.622,9.472 L73.731,9.472 L73.731,11.296 L71.622,11.296 L71.622,18.592 L69.342,18.592 L69.342,11.296 Z M74.605,13.994 C74.605,13.2719964 74.734832,12.6165029 74.9945,12.0275 C75.254168,11.4384971 75.6056645,10.9350021 76.049,10.517 C76.4923356,10.0989979 77.017997,9.77600114 77.626,9.548 C78.234003,9.31999886 78.8799966,9.206 79.564,9.206 C80.2480034,9.206 80.893997,9.31999886 81.502,9.548 C82.110003,9.77600114 82.6356645,10.0989979 83.079,10.517 C83.5223356,10.9350021 83.873832,11.4384971 84.1335,12.0275 C84.393168,12.6165029 84.523,13.2719964 84.523,13.994 C84.523,14.7160036 84.393168,15.3746637 84.1335,15.97 C83.873832,16.5653363 83.5223356,17.0751645 83.079,17.4995 C82.6356645,17.9238355 82.110003,18.2563321 81.502,18.497 C80.893997,18.7376679 80.2480034,18.858 79.564,18.858 C78.8799966,18.858 78.234003,18.7376679 77.626,18.497 C77.017997,18.2563321 76.4923356,17.9238355 76.049,17.4995 C75.6056645,17.0751645 75.254168,16.5653363 74.9945,15.97 C74.734832,15.3746637 74.605,14.7160036 74.605,13.994 Z M76.923,13.994 C76.923,14.3486684 76.9768328,14.7033316 77.0845,15.058 C77.1921672,15.4126684 77.3536656,15.7293319 77.569,16.008 C77.7843344,16.2866681 78.056665,16.5146658 78.386,16.692 C78.715335,16.8693342 79.1079977,16.958 79.564,16.958 C80.0200023,16.958 80.412665,16.8693342 80.742,16.692 C81.071335,16.5146658 81.3436656,16.2866681 81.559,16.008 C81.7743344,15.7293319 81.9358328,15.4126684 82.0435,15.058 C82.1511672,14.7033316 82.205,14.3486684 82.205,13.994 C82.205,13.6393316 82.1511672,13.2878351 82.0435,12.9395 C81.9358328,12.5911649 81.7743344,12.2776681 81.559,11.999 C81.3436656,11.7203319 81.071335,11.4955009 80.742,11.3245 C80.412665,11.1534991 80.0200023,11.068 79.564,11.068 C79.1079977,11.068 78.715335,11.1534991 78.386,11.3245 C78.056665,11.4955009 77.7843344,11.7203319 77.569,11.999 C77.3536656,12.2776681 77.1921672,12.5911649 77.0845,12.9395 C76.9768328,13.2878351 76.923,13.6393316 76.923,13.994 Z M86.765,4.228 L89.045,4.228 L89.045,18.592 L86.765,18.592 L86.765,4.228 Z M91.857,9.472 L94.137,9.472 L94.137,18.592 L91.857,18.592 L91.857,9.472 Z M91.534,6.375 C91.534,6.00766483 91.6701653,5.68783469 91.9425,5.4155 C92.2148347,5.14316531 92.5599979,5.007 92.978,5.007 C93.3960021,5.007 93.7474986,5.13683203 94.0325,5.3965 C94.3175014,5.65616797 94.46,5.98233137 94.46,6.375 C94.46,6.76766863 94.3175014,7.09383203 94.0325,7.3535 C93.7474986,7.61316796 93.3960021,7.743 92.978,7.743 C92.5599979,7.743 92.2148347,7.60683469 91.9425,7.3345 C91.6701653,7.0621653 91.534,6.74233517 91.534,6.375 Z M96.379,13.994 C96.379,13.2719964 96.508832,12.6165029 96.7685,12.0275 C97.028168,11.4384971 97.3796644,10.9350021 97.823,10.517 C98.2663355,10.0989979 98.791997,9.77600114 99.4,9.548 C100.008003,9.31999886 100.653997,9.206 101.338,9.206 C102.022003,9.206 102.667997,9.31999886 103.276,9.548 C103.884003,9.77600114 104.409664,10.0989979 104.853,10.517 C105.296336,10.9350021 105.647832,11.4384971 105.9075,12.0275 C106.167168,12.6165029 106.297,13.2719964 106.297,13.994 C106.297,14.7160036 106.167168,15.3746637 105.9075,15.97 C105.647832,16.5653363 105.296336,17.0751645 104.853,17.4995 C104.409664,17.9238355 103.884003,18.2563321 103.276,18.497 C102.667997,18.7376679 102.022003,18.858 101.338,18.858 C100.653997,18.858 100.008003,18.7376679 99.4,18.497 C98.791997,18.2563321 98.2663355,17.9238355 97.823,17.4995 C97.3796644,17.0751645 97.028168,16.5653363 96.7685,15.97 C96.508832,15.3746637 96.379,14.7160036 96.379,13.994 Z M98.697,13.994 C98.697,14.3486684 98.7508328,14.7033316 98.8585,15.058 C98.9661672,15.4126684 99.1276656,15.7293319 99.343,16.008 C99.5583344,16.2866681 99.830665,16.5146658 100.16,16.692 C100.489335,16.8693342 100.881998,16.958 101.338,16.958 C101.794002,16.958 102.186665,16.8693342 102.516,16.692 C102.845335,16.5146658 103.117666,16.2866681 103.333,16.008 C103.548334,15.7293319 103.709833,15.4126684 103.8175,15.058 C103.925167,14.7033316 103.979,14.3486684 103.979,13.994 C103.979,13.6393316 103.925167,13.2878351 103.8175,12.9395 C103.709833,12.5911649 103.548334,12.2776681 103.333,11.999 C103.117666,11.7203319 102.845335,11.4955009 102.516,11.3245 C102.186665,11.1534991 101.794002,11.068 101.338,11.068 C100.881998,11.068 100.489335,11.1534991 100.16,11.3245 C99.830665,11.4955009 99.5583344,11.7203319 99.343,11.999 C99.1276656,12.2776681 98.9661672,12.5911649 98.8585,12.9395 C98.7508328,13.2878351 98.697,13.6393316 98.697,13.994 Z M113.498,11.904 C113.295332,11.6379987 113.016668,11.4068343 112.662,11.2105 C112.307332,11.0141657 111.921002,10.916 111.503,10.916 C111.135665,10.916 110.800002,10.9919992 110.496,11.144 C110.191998,11.2960008 110.04,11.5493316 110.04,11.904 C110.04,12.2586684 110.207832,12.5088326 110.5435,12.6545 C110.879168,12.8001674 111.369997,12.9489992 112.016,13.101 C112.358002,13.1770004 112.703165,13.2783327 113.0515,13.405 C113.399835,13.5316673 113.716499,13.699499 114.0015,13.9085 C114.286501,14.117501 114.517666,14.3771651 114.695,14.6875 C114.872334,14.9978349 114.961,15.3746644 114.961,15.818 C114.961,16.3753361 114.856501,16.8471647 114.6475,17.2335 C114.438499,17.6198353 114.159835,17.9333321 113.8115,18.174 C113.463165,18.4146679 113.057836,18.5888328 112.5955,18.6965 C112.133164,18.8041672 111.655002,18.858 111.161,18.858 C110.451663,18.858 109.761337,18.728168 109.09,18.4685 C108.418663,18.208832 107.861336,17.8383357 107.418,17.357 L108.919,15.951 C109.172335,16.280335 109.501665,16.5526656 109.907,16.768 C110.312335,16.9833344 110.761998,17.091 111.256,17.091 C111.420667,17.091 111.588499,17.0720002 111.7595,17.034 C111.930501,16.9959998 112.088833,16.9358337 112.2345,16.8535 C112.380167,16.7711663 112.497333,16.660334 112.586,16.521 C112.674667,16.381666 112.719,16.2106677 112.719,16.008 C112.719,15.6279981 112.544835,15.3556675 112.1965,15.191 C111.848165,15.0263325 111.32567,14.8616675 110.629,14.697 C110.286998,14.6209996 109.954502,14.5228339 109.6315,14.4025 C109.308498,14.2821661 109.020335,14.1238343 108.767,13.9275 C108.513665,13.7311657 108.311001,13.4873348 108.159,13.196 C108.006999,12.9046652 107.931,12.5436688 107.931,12.113 C107.931,11.6063308 108.035499,11.1693352 108.2445,10.802 C108.453501,10.4346648 108.728998,10.1338345 109.071,9.8995 C109.413002,9.6651655 109.799331,9.49100057 110.23,9.377 C110.660669,9.26299943 111.103998,9.206 111.56,9.206 C112.21867,9.206 112.861497,9.31999886 113.4885,9.548 C114.115503,9.77600114 114.612665,10.124331 114.98,10.593 L113.498,11.904 Z" id="Bestfolios"></path>
            <path d="M19.6666667,4.23280423 L19.6666667,12.8042328 L4.33333333,12.8042328 L4.33333333,4.23280423 L19.6666667,4.23280423 Z M12,23 C5.14872538,23 0,17.8512746 0,12 C0,5.14872538 5.14872538,0 12,0 C17.8512746,0 23,5.14872538 23,12 C23,17.8512746 17.8512746,23 12,23 Z M12,18.7142857 C15.48434,18.7142857 18.7142857,15.48434 18.7142857,12 C18.7142857,7.61942261 15.5749772,4.28571429 12,4.28571429 C7.51566002,4.28571429 4.28571429,7.51566002 4.28571429,12 C4.28571429,15.5749772 7.61942261,18.7142857 12,18.7142857 Z" id="Combined-Shape" fill-rule="nonzero"></path>
        </g>
    </g>
</svg>